#!OML:ASF H:\Terrain\Patient Classification 1\Walking\steve\steve.ASF
:FULLY-SPECIFIED
:DEGREES
286
root 8.99658 15.9646 15.905 8.28404 -12.9677 -8.54047
lowerback 0.299796 6.61424 9.58141
upperback -1.66979 8.94794 2.36151
thorax -0.839062 4.36955 -2.84155
lowerneck -8.79637 -0.985689 -0.929827
upperneck 14.8814 -1.24202 0.298895
head 5.95876 -0.629146 0.152427
rclavicle -5.48149e-014 -4.37326e-015
rhumerus -20.5931 15.578 -81.6665
rradius 52.0001
rwrist -10.0341
rhand -17.0326 -37.9424
rfingers 7.12502
rthumb 9.20388 -67.7215
lclavicle -5.48149e-014 -4.37326e-015
lhumerus -61.5319 1.54849 78.8278
lradius 21.7414
lwrist 2.43225
lhand -19.2323 -17.3491
lfingers 7.12502
lthumb 7.08095 12.5125
rfemur 12.2966 -2.0071 27.6466
rtibia 13.3142
rfoot -8.4085 26.5901
rtoes 12.6593
lfemur -44.087 -1.28888 -1.56623
ltibia 20.4687
lfoot -27.1771 20.7652
ltoes -11.6124
287
root 9.00537 15.9152 16.093 8.38979 -13.2751 -9.12122
lowerback 0.401201 6.68496 9.99191
upperback -1.68249 9.05937 2.40098
thorax -0.842521 4.41905 -3.02565
lowerneck -8.86476 -0.941835 -0.809457
upperneck 14.7844 -1.19266 0.252741
head 5.93864 -0.602028 0.121716
rclavicle -7.87187e-014 -2.50469e-014
rhumerus -20.3625 15.629 -81.776
rradius 51.7564
rwrist -9.9584
rhand -17.7829 -37.0249
rfingers 7.12502
rthumb 8.47989 -66.8347
lclavicle -7.87187e-014 -2.50469e-014
lhumerus -62.0093 1.97063 78.052
lradius 21.7344
lwrist 2.08353
lhand -19.0576 -17.2148
lfingers 7.12502
lthumb 7.24956 12.6411
rfemur 13.4162 -1.67895 27.9481
rtibia 12.3875
rfoot -7.64655 26.4999
rtoes 13.4415
lfemur -44.3444 -0.375495 -1.14828
ltibia 20.3868
lfoot -27.2755 18.5689
ltoes -4.23885
288
root 9.02016 15.8577 16.2813 8.68576 -13.2477 -9.57125
lowerback 0.17901 6.64434 10.2633
upperback -1.69561 8.97942 2.46395
thorax -0.713008 4.3813 -3.07794
lowerneck -8.49903 -0.798341 -0.907935
upperneck 14.0253 -1.00291 0.36986
head 5.63768 -0.506916 0.192112
rclavicle 4.3832e-014 5.88403e-014
rhumerus -20.1923 15.9913 -81.76
rradius 51.747
rwrist -10.1862
rhand -17.5799 -37.8362
rfingers 7.12502
rthumb 8.6758 -67.6379
lclavicle 4.3832e-014 5.88403e-014
lhumerus -62.3625 2.51272 77.4073
lradius 21.4882
lwrist 1.95142
lhand -19.2402 -17.8117
lfingers 7.12502
lthumb 7.07325 12.0501
rfemur 14.381 -1.78357 28.0773
rtibia 11.5214
rfoot -6.68745 26.6489
rtoes 15.2493
lfemur -44.9315 0.632045 -1.1982
ltibia 20.3642
lfoot -24.7163 18.7742
ltoes -8.42854
289
root 9.03695 15.8142 16.4715 8.88792 -13.9658 -8.93258
lowerback 0.187365 6.79034 9.31542
upperback -1.87533 9.18056 2.19071
thorax -0.975457 4.47758 -2.86893
lowerneck -8.07803 -0.747044 -1.0267
upperneck 13.4247 -0.943397 0.534498
head 5.37932 -0.472951 0.269781
rclavicle -6.79595e-014 -6.36111e-015
rhumerus -20.2704 16.5158 -81.8525
rradius 51.6899
rwrist -10.438
rhand -17.3085 -37.8312
rfingers 7.12502
rthumb 8.93765 -67.6219
lclavicle -6.79595e-014 -6.36111e-015
lhumerus -62.9372 2.92787 76.7007
lradius 21.2518
lwrist 1.85571
lhand -19.4074 -18.6912
lfingers 7.12502
lthumb 6.91191 11.176
rfemur 15.284 -0.820363 27.2051
rtibia 10.5087
rfoot -6.10389 26.1385
rtoes 15.2
lfemur -45.3006 0.797841 -1.5325
ltibia 20.5075
lfoot -24.5126 18.8673
ltoes -8.01693
290
root 9.05079 15.767 16.6857 9.13768 -14.3866 -8.95056
lowerback 0.0221375 6.88675 9.14266
upperback -2.0027 9.29533 2.02648
thorax -1.00173 4.53255 -2.92872
lowerneck -8.21919 -0.812185 -0.89611
upperneck 13.3575 -1.04294 0.495297
head 5.38235 -0.517636 0.228663
rclavicle 2.16924e-014 -9.74045e-015
rhumerus -20.678 16.7944 -82.0728
rradius 52.0918
rwrist -10.3417
rhand -17.658 -36.964
rfingers 7.12502
rthumb 8.60038 -66.7689
lclavicle 2.16924e-014 -9.74045e-015
lhumerus -63.5212 3.18518 75.9671
lradius 21.182
lwrist 1.74208
lhand -19.3798 -18.7739
lfingers 7.12502
lthumb 6.93851 11.0923
rfemur 16.409 0.185359 27.0226
rtibia 9.39756
rfoot -5.86325 25.4577
rtoes 13.9983
lfemur -45.7129 1.41717 -1.61493
ltibia 20.8553
lfoot -24.3892 16.9677
ltoes -2.98828
